<svg width="36" height="50" viewBox="0 0 36 50" fill="none" xmlns="http://www.w3.org/2000/svg">
<g clip-path="url(#clip0)">
<path d="M17.7068 49.8736L3.27717 45.8678L0.0615234 9.80127H35.3953L32.1763 45.8622L17.7068 49.8736V49.8736Z" fill="#264DE4"/>
<path d="M29.4206 43.5662L32.1713 12.7504H17.7285V46.8076L29.4206 43.5662V43.5662Z" fill="#2965F1"/>
<path d="M7.43335 26.1268L7.82975 30.5502H17.7285V26.1268H7.43335Z" fill="#EBEBEB"/>
<path d="M6.63672 17.1737L7.0388 21.5971H17.7285V17.1737H6.63672V17.1737Z" fill="#EBEBEB"/>
<path d="M17.7285 37.615L17.7091 37.6201L12.7827 36.2899L12.4678 32.7621H8.02734L8.64701 39.7075L17.7081 42.2228L17.7285 42.2172V37.615Z" fill="#EBEBEB"/>
<path d="M8.37744 0H13.7348V2.24044H10.6179V4.48089H13.7351V6.72119H8.37744V0Z" fill="black"/>
<path d="M14.8063 0H20.1638V1.9482H17.0467V2.33781H20.1638V6.8187H14.8064V4.77285H17.9235V4.38324H14.8062V0H14.8063Z" fill="black"/>
<path d="M21.2354 0H26.5928V1.9482H23.4758V2.33781H26.5928V6.8187H21.2354V4.77285H24.3524V4.38324H21.2355V0H21.2354Z" fill="black"/>
<path d="M27.9954 26.1268L28.7939 17.1737H17.7133V21.5971H23.9462L23.5437 26.1268H17.7133V30.5502H23.1602L22.6467 36.287L17.7131 37.6186V42.2205L26.7814 39.7074L26.8479 38.96L27.8875 27.3146L27.9954 26.1268V26.1268Z" fill="white"/>
</g>
<defs>
<clipPath id="clip0">
<rect width="35.4571" height="50" fill="white"/>
</clipPath>
</defs>
</svg>
