<svg width="51" height="51" viewBox="0 0 51 51" fill="none" xmlns="http://www.w3.org/2000/svg">
<path d="M25.796 0.550903C12.0559 0.550903 0.796021 11.9084 0.796021 25.6486C0.796021 39.309 11.9532 50.5509 25.796 50.5509C39.6216 50.5509 50.796 39.3258 50.796 25.6486C50.796 11.9084 39.5362 0.550903 25.796 0.550903ZM30.1906 47.1818C28.7845 47.4747 27.2902 47.6212 25.796 47.6212C24.3018 47.6212 22.8076 47.4747 21.4015 47.1818V40.3264C21.4015 38.6857 21.8409 38.0997 22.4269 37.3086C22.7252 36.9675 22.9052 36.6616 24.2431 34.6429L21.9874 34.2911C16.1864 33.4416 13.9014 30.4238 12.9931 28.08C11.8213 24.9455 12.4366 21.0194 14.5461 18.5296C14.8684 18.1485 15.132 17.5038 14.8978 16.8301C14.458 15.4824 14.5167 13.3439 14.8097 12.5233C16.363 12.7453 17.9603 13.8581 19.2923 14.6622C19.9061 15.0204 20.2281 14.9258 20.5226 14.9552C21.593 14.7324 23.2627 14.1934 25.8254 14.1934C27.4073 14.1934 29.0774 14.4276 30.7181 14.8965C31.0115 14.8896 31.483 15.1391 32.3001 14.6622C33.6924 13.8138 35.2355 12.7392 36.7823 12.5233C37.0753 13.3439 37.1341 15.4824 36.6946 16.8301C36.46 17.5038 36.7236 18.1485 37.0463 18.5296C39.1555 21.0198 39.7708 24.9455 38.5989 28.08C37.6906 30.4238 35.4056 33.4416 29.6046 34.2911L27.349 34.6429C28.7318 36.7295 28.8775 36.9797 29.1655 37.3086C29.7511 38.0997 30.1906 38.6857 30.1906 40.3264V47.1818ZM33.1202 46.3322V40.3264C33.1202 38.6563 32.7685 37.5432 32.2997 36.7226C36.753 35.5218 39.9173 32.8847 41.3234 29.1054C42.8176 25.1214 42.1439 20.3751 39.6533 17.0937C40.0931 15.1311 40.0931 11.9961 39.0384 10.5313C38.5695 9.88699 37.9249 9.53528 37.1047 9.53528C37.0753 9.53528 37.0753 9.53528 37.0753 9.53528C34.8037 9.65811 33.0157 10.8021 31.0988 11.9668C29.341 11.4979 27.5538 11.2637 25.7666 11.2637C23.9505 11.2637 22.1339 11.5273 20.523 11.9668C18.505 10.7499 16.7342 9.65506 14.3996 9.53528C13.6672 9.53528 13.0225 9.88699 12.5537 10.5313C11.4993 11.9961 11.4993 15.1311 11.9388 17.0937C9.44814 20.3751 8.77446 25.1504 10.2687 29.1054C11.6748 32.8847 14.8391 35.5218 19.2923 36.7226C18.9288 37.3585 18.6412 38.1791 18.5279 39.2895C17.6284 39.5997 16.8483 39.7008 16.1227 39.4875C15.3575 39.2613 14.7612 38.7505 14.2432 37.8792C13.0797 35.9246 11.098 34.3289 8.8416 34.5364L9.09909 37.4547C10.1439 37.3589 11.1838 38.4644 11.724 39.3757C12.6151 40.8764 13.8156 41.8606 15.293 42.297C16.3897 42.6201 17.3922 42.6125 18.4718 42.3821V46.3322C9.94633 43.3438 3.72571 35.1994 3.72571 25.6486C3.72571 13.5197 13.6672 3.48059 25.796 3.48059C37.9249 3.48059 47.8663 13.5197 47.8663 25.6486C47.8663 35.1994 41.6457 43.3438 33.1202 46.3322Z" fill="black"/>
</svg>
