<svg width="50" height="50" viewBox="0 0 50 50" fill="none" xmlns="http://www.w3.org/2000/svg">
<path d="M25 0C18.3696 0 12.0107 2.63392 7.32233 7.32233C2.63392 12.0107 0 18.3696 0 25C0 31.6304 2.63392 37.9893 7.32233 42.6777C12.0107 47.3661 18.3696 50 25 50C31.6304 50 37.9893 47.3661 42.6777 42.6777C47.3661 37.9893 50 31.6304 50 25C50 18.3696 47.3661 12.0107 42.6777 7.32233C37.9893 2.63392 31.6304 0 25 0ZM31.5909 45.3818H31.3955C31.2499 45.3897 31.1042 45.3677 30.9675 45.3173C30.8307 45.2669 30.7056 45.1891 30.6 45.0886C30.5024 44.9857 30.4262 44.8644 30.3758 44.7317C30.3255 44.5991 30.302 44.4577 30.3068 44.3159V41.3841C30.3205 40.4114 30.3295 39.4295 30.3295 38.4364C30.3259 37.7106 30.2195 36.9891 30.0136 36.2932C29.8197 35.5904 29.4285 34.9579 28.8864 34.4705C30.3384 34.3302 31.7657 34.0001 33.1318 33.4886C34.2843 33.0507 35.3269 32.3657 36.1864 31.4818C37.0341 30.5909 37.6636 29.5182 38.0273 28.3432C38.4727 26.9068 38.6841 25.4114 38.6545 23.9068C38.6613 22.8572 38.4764 21.8151 38.1091 20.8318C37.7381 19.8409 37.1768 18.9322 36.4568 18.1568C36.6114 17.7659 36.725 17.3591 36.7932 16.9432C36.9516 15.9908 36.9238 15.0168 36.7114 14.075C36.5975 13.5339 36.4433 13.0021 36.25 12.4841C36.1761 12.4556 36.0974 12.4417 36.0182 12.4432H35.7909C35.3136 12.4477 34.8386 12.5273 34.3864 12.675C33.8864 12.8205 33.3955 13.0023 32.9205 13.2182C32.4481 13.4296 31.9883 13.6679 31.5432 13.9318C31.1377 14.1709 30.7398 14.4225 30.35 14.6864C26.8456 13.7097 23.1408 13.7097 19.6364 14.6864C19.245 14.4249 18.8472 14.1733 18.4432 13.9318C17.9919 13.6649 17.5243 13.4266 17.0432 13.2182C16.5697 12.9967 16.0786 12.815 15.575 12.675C15.1297 12.5277 14.6644 12.4495 14.1955 12.4432H13.9682C13.8904 12.4428 13.8132 12.4575 13.7409 12.4864C13.5436 13.0043 13.3818 13.5351 13.2568 14.075C13.0597 15.0191 13.0389 15.9915 13.1955 16.9432C13.2636 17.3591 13.375 17.7659 13.5295 18.1568C12.8102 18.9322 12.2497 19.841 11.8795 20.8318C11.5122 21.8151 11.3274 22.8572 11.3341 23.9068C11.304 25.4006 11.508 26.8898 11.9386 28.3205C12.3182 29.4955 12.9455 30.575 13.7818 31.4818C14.6455 32.3591 15.6864 33.0432 16.8364 33.4886C18.1955 34.0114 19.6205 34.3455 21.0705 34.4818C20.6659 34.8477 20.3432 35.3 20.1295 35.8C19.925 36.2977 19.7818 36.8182 19.7114 37.35C18.9471 37.7164 18.1112 37.9089 17.2636 37.9136C16.4765 37.9443 15.6999 37.7247 15.0455 37.2864C14.4167 36.8212 13.8841 36.2384 13.4773 35.5705C13.2953 35.2904 13.0925 35.0245 12.8705 34.775C12.6359 34.5134 12.3772 34.2744 12.0977 34.0614C11.8209 33.8548 11.5174 33.6866 11.1955 33.5614C10.8795 33.4225 10.5383 33.3505 10.1932 33.35C10.1095 33.3527 10.026 33.3603 9.94318 33.3727C9.82955 33.3727 9.71591 33.3864 9.60682 33.4136C9.50925 33.4389 9.41692 33.4812 9.33409 33.5386C9.29746 33.5595 9.26689 33.5896 9.24537 33.6258C9.22386 33.6621 9.21214 33.7033 9.21136 33.7455C9.22046 33.8458 9.25143 33.943 9.30207 34.0302C9.35272 34.1174 9.42183 34.1924 9.50455 34.25C9.69545 34.4045 9.85682 34.5227 9.98636 34.6068L10.0455 34.65C10.325 34.8636 10.5909 35.0955 10.8409 35.3432C11.0773 35.5477 11.2886 35.7795 11.4682 36.0318C11.6568 36.2773 11.8182 36.5455 11.95 36.825C12.1023 37.1045 12.2636 37.425 12.4318 37.7886C12.8227 38.775 13.5182 39.6114 14.4182 40.175C15.3614 40.6818 16.4227 40.9341 17.4932 40.9068C17.8568 40.9068 18.2205 40.8841 18.5841 40.8432C18.9386 40.7864 19.2955 40.725 19.6523 40.6545V44.2864C19.6583 44.4325 19.6336 44.5782 19.5796 44.7142C19.5257 44.8501 19.4437 44.9732 19.3392 45.0754C19.2346 45.1776 19.1097 45.2567 18.9725 45.3076C18.8354 45.3584 18.6891 45.3798 18.5432 45.3705H18.4136C13.5559 43.801 9.41812 40.5488 6.74536 36.1994C4.0726 31.85 3.04049 26.6893 3.83489 21.6466C4.62929 16.6038 7.198 12.0103 11.0785 8.69329C14.9589 5.37626 19.8962 3.55365 25.0011 3.55365C30.1061 3.55365 35.0433 5.37626 38.9238 8.69329C42.8043 12.0103 45.373 16.6038 46.1674 21.6466C46.9618 26.6893 45.9297 31.85 43.2569 36.1994C40.5842 40.5488 36.4464 43.801 31.5886 45.3705V45.3818H31.5909Z" fill="white"/>
</svg>
