<svg width="26" height="26" viewBox="0 0 26 26" fill="none" xmlns="http://www.w3.org/2000/svg">
<g clip-path="url(#clip0)">
<path d="M25.2775 19.3544L24.5162 18.3305C24.5234 18.2629 25.3017 16.1807 24.3956 14.373C24.2513 14.0851 24.138 13.7817 24.0836 13.4643C23.7059 11.2593 24.8232 8.27518 24.8446 8.20765C25.234 6.9767 25.3887 6.48544 24.4476 6.0328C23.4235 5.54013 22.5135 6.10922 21.9822 7.07479C21.91 7.20585 20.8408 9.18948 20.5958 11.7672C19.0124 9.63762 15.247 4.57339 13.9955 2.89009C13.5283 2.26158 12.6542 2.06793 11.9862 2.47686C11.2201 2.94585 11.0363 3.95776 11.5601 4.66225C11.5563 4.65713 10.7679 3.59668 10.7904 3.62705C10.3 2.96743 9.36748 2.79327 8.69541 3.26655C8.00035 3.75605 7.84908 4.71884 8.35318 5.39687C9.25181 6.60541 9.04517 6.32763 9.14307 6.45927C8.62486 5.7623 7.619 5.64184 6.94908 6.21908C6.34752 6.73739 6.27086 7.64393 6.74464 8.28118L8.20376 10.2437C7.67999 9.53924 6.65807 9.42371 5.98829 10.0223C5.40436 10.5443 5.33805 11.437 5.80534 12.0655C6.04532 12.3883 12.6177 21.2279 12.9829 21.7191C13.7346 22.7301 14.7616 23.4154 15.883 23.7486C16.9381 24.0621 17.3686 24.8948 17.4919 25.0252L17.5426 25.0934C17.9648 25.6612 18.7673 25.7793 19.3351 25.3571L25.0155 21.1336C25.5793 20.7145 25.6965 19.918 25.2775 19.3544Z" fill="#F4D44E"/>
<path d="M20.1367 5.07095C19.5163 3.76402 18.6396 2.58468 17.5661 1.61354C17.4161 1.4779 17.4045 1.24626 17.5402 1.09626C17.6759 0.946262 17.9075 0.934641 18.0575 1.07038C19.2015 2.10519 20.1364 3.36232 20.7984 4.75679C20.8851 4.93951 20.8073 5.15801 20.6246 5.24473C20.4427 5.33116 20.2239 5.25455 20.1367 5.07095Z" fill="#EAE9E8"/>
<path d="M18.0837 5.64356C17.6512 4.82081 17.0909 4.06695 16.4266 3.41486C16.2822 3.27316 16.2801 3.04127 16.4218 2.89694C16.5635 2.75255 16.7954 2.7505 16.9397 2.89211C17.6571 3.59635 18.2636 4.41148 18.732 5.30274C18.8261 5.48174 18.7573 5.70323 18.5783 5.79732C18.3988 5.89165 18.1776 5.82227 18.0837 5.64356Z" fill="#EAE9E8"/>
<path d="M4.21804 17.0845C3.07391 16.0495 2.13924 14.7928 1.47714 13.3982C1.39037 13.2154 1.4682 12.9969 1.65087 12.9102C1.83358 12.8235 2.05204 12.9013 2.1388 13.084C2.75936 14.3911 3.63577 15.5701 4.70945 16.5413C4.85945 16.677 4.87102 16.9086 4.73533 17.0586C4.60007 17.2081 4.36843 17.2206 4.21804 17.0845Z" fill="#EAE9E8"/>
<path d="M5.33592 15.2629C4.61825 14.5584 4.0121 13.7433 3.54359 12.8522C3.4495 12.6732 3.5183 12.4517 3.69735 12.3576C3.87641 12.2636 4.09784 12.3323 4.19193 12.5113C4.62459 13.3344 5.18475 14.0881 5.849 14.7401C5.99334 14.8818 5.99549 15.1137 5.85384 15.258C5.71233 15.4022 5.4804 15.4048 5.33592 15.2629Z" fill="#EAE9E8"/>
<path d="M8.4185 5.48439C8.97304 6.23019 13.3664 12.1391 13.2178 11.9393C13.46 12.265 13.9275 12.317 14.2353 12.0525C14.5152 11.812 14.5614 11.396 14.3412 11.0999L10.4274 5.8361C10.4258 5.83385 10.4242 5.83175 10.4228 5.82985L10.4174 5.82262C10.4153 5.81979 10.4134 5.81725 10.4118 5.815L10.4077 5.80958C10.4077 5.80958 10.4077 5.80948 10.4076 5.80948L9.65004 4.79054C9.24603 4.24719 9.26332 3.52116 9.64369 3.00217C8.44286 2.92414 7.52637 4.2841 8.4185 5.48439Z" fill="#E8C842"/>
<path d="M11.0486 14.0694C11.3083 14.4188 11.8152 14.4623 12.1308 14.1623C12.3764 13.929 12.409 13.549 12.2069 13.277C11.6947 12.5882 8.43196 8.19992 8.04154 7.67477C7.6348 7.12775 7.63412 6.38254 8.02249 5.85451C6.74247 5.77927 5.96947 7.23815 6.74491 8.28107C8.6907 10.8982 9.02361 11.346 11.0486 14.0694Z" fill="#E8C842"/>
<path d="M18.8395 24.487L18.7888 24.4188C18.6655 24.2884 18.235 23.4556 17.1799 23.1422C16.0585 22.809 15.0314 22.1237 14.2798 21.1127C13.9146 20.6214 7.34222 11.7819 7.10223 11.4591C6.69618 10.913 6.69325 10.1675 7.08255 9.63895C5.80634 9.56449 5.02636 11.0174 5.80565 12.0655C6.04564 12.3883 12.618 21.2278 12.9832 21.719C13.7349 22.73 14.7619 23.4154 15.8833 23.7485C16.9384 24.062 17.3689 24.8948 17.4922 25.0251L17.5429 25.0933C17.9651 25.6612 18.7676 25.7792 19.3354 25.357L19.8124 25.0024C19.4406 24.9861 19.0789 24.809 18.8395 24.487Z" fill="#E8C842"/>
<path d="M12.8568 4.05592C12.8568 4.05592 12.856 4.05495 12.8568 4.05592C12.4521 3.51174 12.4701 2.7843 12.8522 2.26521C12.588 2.24773 12.3187 2.29992 12.0726 2.42864L12.0725 2.42844C11.9448 2.49524 11.8291 2.57912 11.7301 2.67326C11.7299 2.67341 11.7297 2.67356 11.7295 2.67375C11.2054 3.17214 11.1078 3.98293 11.5122 4.59386L11.5601 4.66227L15.8945 10.4919C16.1476 10.8323 16.6416 10.8743 16.9485 10.5814C17.2316 10.3112 17.2669 9.87148 17.0303 9.55961L12.8568 4.05592ZM12.441 3.49679L12.4182 3.46608C12.4258 3.47629 12.4334 3.48649 12.441 3.49679Z" fill="#E8C842"/>
<path d="M21.9824 7.07478C21.9373 7.15657 21.5042 7.96071 21.1252 9.17985L21.1248 9.17951C20.8966 9.91364 20.688 10.7984 20.5959 11.7672C20.9977 12.3011 21.8471 12.0414 21.8815 11.3741L21.8925 11.1608C22.1375 8.58312 23.2067 6.59954 23.2789 6.46844C23.4061 6.23724 23.5553 6.02913 23.7224 5.85252C23.0022 5.84192 22.3841 6.34485 21.9824 7.07478Z" fill="#E8C842"/>
<path d="M19.9536 5.07095C20.041 5.25489 20.2601 5.33091 20.4416 5.24473C20.6243 5.15801 20.7021 4.93951 20.6153 4.75679C19.9538 3.36339 19.0193 2.10597 17.8744 1.07033C17.7244 0.934738 17.4929 0.946261 17.3571 1.09626C17.2214 1.24626 17.233 1.47785 17.383 1.61359C18.456 2.58424 19.3327 3.76314 19.9536 5.07095Z" fill="black"/>
<path d="M16.2386 2.8969C16.097 3.04123 16.0991 3.27312 16.2435 3.41481C16.9071 4.06623 17.4674 4.81964 17.9006 5.64357C17.9661 5.76822 18.0934 5.83946 18.2252 5.83946C18.4968 5.83946 18.6783 5.5485 18.549 5.3027C18.0812 4.41281 17.4752 3.59738 16.7567 2.89211C16.6123 2.75051 16.3804 2.75256 16.2386 2.8969Z" fill="black"/>
<path d="M1.95572 13.0839C1.869 12.9013 1.65054 12.8234 1.46778 12.9102C1.28511 12.9969 1.20728 13.2154 1.294 13.3981C1.95552 14.7915 2.88999 16.0488 4.03491 17.0845C4.10502 17.1479 4.19282 17.1791 4.28046 17.1791C4.61279 17.1791 4.77572 16.7669 4.52621 16.5413C3.99194 16.0579 3.50234 15.5188 3.07114 14.9388C2.63984 14.3587 2.2646 13.7346 1.95572 13.0839Z" fill="black"/>
<path d="M4.00885 12.5114C3.91481 12.3324 3.69347 12.2636 3.51422 12.3577C3.33522 12.4518 3.26637 12.6732 3.36051 12.8523C3.81124 13.7096 4.4088 14.5326 5.15284 15.2629C5.29708 15.4045 5.52896 15.4026 5.67076 15.2581C5.81241 15.1137 5.81026 14.8819 5.66592 14.7402C5.0022 14.0886 4.442 13.3353 4.00885 12.5114Z" fill="black"/>
<path d="M15.1368 4.67114C14.9745 4.79184 14.9407 5.02128 15.0614 5.18354L20.1189 11.9857C20.3186 12.2544 20.7457 12.1349 20.7774 11.8019C21.0172 9.2783 22.075 7.33304 22.12 7.2514C22.3081 6.90931 23.0077 5.83451 24.1057 6.36283C24.7993 6.69652 24.6727 6.89032 24.307 8.11165C24.0386 8.86585 23.1899 11.4853 23.5394 13.5261C23.7071 14.5051 24.0981 14.5624 24.2507 15.8383C24.3119 16.3491 24.2932 16.8698 24.1957 17.3926C24.1722 17.508 24.0389 18.0543 23.5324 18.6628C23.4031 18.8183 23.4242 19.0492 23.5796 19.1787C23.7354 19.3083 23.9663 19.2866 24.0955 19.1314C24.1651 19.0477 24.2289 18.9648 24.2876 18.8832L24.8004 19.5729C25.0983 19.9736 25.0147 20.5418 24.6142 20.8396L23.8437 21.4125C23.5607 21.6229 23.7111 22.0727 24.0624 22.0727C24.2692 22.0727 24.303 21.9563 25.0512 21.4274C25.7759 20.8886 25.9271 19.8605 25.3883 19.1359L24.7356 18.2579C24.8286 17.9008 25.1276 17.0004 24.9782 15.7512C24.8159 14.3953 24.3952 14.1831 24.2615 13.4024C23.9337 11.4887 24.8168 8.86399 24.9971 8.35726C25.0047 8.33592 25.0092 8.32274 25.0106 8.31805C25.3963 7.09886 25.6511 6.29335 24.4233 5.70263C23.3248 5.17421 22.1688 5.6434 21.4783 6.89803C21.436 6.97489 20.5502 8.60374 20.1693 10.8258L15.6492 4.74653C15.5285 4.58418 15.299 4.55034 15.1368 4.67114Z" fill="black"/>
<path d="M22.9822 22.5095C22.8615 22.3471 22.632 22.3133 22.4698 22.4341L18.9338 25.0632C18.5288 25.3642 17.9546 25.2796 17.6536 24.8749C17.5074 24.7209 17.0159 23.7573 15.8044 23.3975C13.6271 22.7507 12.8935 21.119 12.4805 20.6754C12.3598 20.5131 12.1303 20.4793 11.968 20.6C11.8058 20.7207 11.772 20.9502 11.8927 21.1125C12.2792 21.524 13.15 23.3731 15.5959 24.0996C16.5361 24.3789 16.9083 25.1429 17.0659 25.312C17.607 26.0395 18.6407 26.1938 19.3709 25.651L22.9069 23.0219C23.0691 22.9011 23.1028 22.6717 22.9822 22.5095Z" fill="black"/>
<path d="M10.7817 3.26309C9.72141 2.09659 7.78055 2.63878 7.53016 4.202C7.45794 4.65283 7.5493 5.10303 7.78787 5.48574C6.23661 5.45229 5.32553 7.23256 6.26776 8.49969L6.84071 9.27029C5.26088 9.2534 4.40439 11.0411 5.32841 12.284C7.4285 15.1085 3.28672 9.53797 10.871 19.7386C10.9428 19.8352 11.0532 19.8863 11.1652 19.8863C11.4617 19.8863 11.6399 19.5451 11.4588 19.3015C4.79272 10.3356 6.62142 12.7953 5.91625 11.8469C5.3121 11.0343 5.9352 9.9076 6.92689 10.0083C7.46991 10.0634 7.72157 10.4578 7.72733 10.4628L11.06 14.9451C11.1319 15.0418 11.2423 15.0928 11.3542 15.0928C11.6515 15.0928 11.8285 14.7511 11.6478 14.5081C11.1967 13.9012 7.30624 8.66878 6.85551 8.06258C6.49027 7.57138 6.55595 6.88349 7.00507 6.49653C7.51102 6.06064 8.27157 6.14721 8.6661 6.67778L13.1886 12.7604C13.2605 12.8571 13.3709 12.9081 13.4828 12.9081C13.5588 12.9081 13.6354 12.8846 13.701 12.8358C13.8633 12.7151 13.8971 12.4857 13.7764 12.3234C13.3773 11.7867 8.72918 5.53501 8.46395 5.17832C8.08187 4.6645 8.19652 3.93692 8.72308 3.56597C9.22342 3.21373 9.93675 3.33917 10.3133 3.84561C10.4121 3.97852 15.8405 11.2795 15.8937 11.3511C16.0145 11.5137 16.2442 11.5469 16.4061 11.4265C16.5684 11.3058 16.6022 11.0763 16.4815 10.9141L11.671 4.4437V4.44365C11.2811 3.91939 11.404 3.15059 11.9945 2.78922C12.4903 2.48565 13.1598 2.62598 13.5187 3.1086L14.0399 3.80967C14.1606 3.97202 14.3901 4.00576 14.5523 3.88506C14.7146 3.76441 14.7484 3.53497 14.6277 3.37266L14.1065 2.67159C13.1747 1.41837 11.2035 1.74694 10.7817 3.26309Z" fill="black"/>
</g>
<defs>
<clipPath id="clip0">
<rect width="25" height="25" fill="white" transform="translate(0.984863 0.975708)"/>
</clipPath>
</defs>
</svg>
