<svg width="50" height="35" viewBox="0 0 50 35" fill="none" xmlns="http://www.w3.org/2000/svg">
<path d="M49.1211 18.9512L39.4531 27.8293C38.8672 28.2163 38.1592 28.4098 37.3291 28.4098C36.499 28.4098 35.791 28.2106 35.2051 27.8122C34.6191 27.4138 34.3262 26.9244 34.3262 26.3439C34.3262 25.7634 34.6191 25.2683 35.2051 24.8585L43.2617 17.4829L35.2051 10.1073C34.6191 9.69756 34.3262 9.20813 34.3262 8.63902C34.3262 8.06992 34.6191 7.58049 35.2051 7.17073C35.791 6.76098 36.499 6.5561 37.3291 6.5561C38.1592 6.5561 38.8672 6.76098 39.4531 7.17073L49.1211 16.0146C49.707 16.4244 50 16.9138 50 17.4829C50 18.052 49.707 18.5415 49.1211 18.9512ZM25 32.8146C24.9674 32.8829 24.9186 33.0138 24.8535 33.2073C24.7884 33.4008 24.7396 33.5317 24.707 33.6L24.5361 33.9585L24.292 34.3171L23.9258 34.5902L23.4131 34.8293L22.7539 34.9488L21.875 35C21.0938 35 20.3451 34.7154 19.6289 34.1463C18.9128 33.5772 18.6523 33.0309 18.8477 32.5073L25 2.18537C25.5534 0.728455 27.1159 0 29.6875 0C30.4036 0 30.8838 0.26748 31.1279 0.802439C31.3721 1.3374 31.3802 1.90081 31.1523 2.49268L25 32.8146ZM14.7949 27.8122C14.209 28.2106 13.501 28.4098 12.6709 28.4098C11.8408 28.4098 11.1328 28.2163 10.5469 27.8293L0.878906 18.9512C0.292969 18.5415 0 18.052 0 17.4829C0 16.9138 0.292969 16.4244 0.878906 16.0146L10.5469 7.17073C11.1328 6.76098 11.8408 6.5561 12.6709 6.5561C13.501 6.5561 14.209 6.76098 14.7949 7.17073C15.3809 7.58049 15.6738 8.06992 15.6738 8.63902C15.6738 9.20813 15.3809 9.69756 14.7949 10.1073L6.73828 17.4829L14.7949 24.8585C15.3809 25.2683 15.6738 25.7634 15.6738 26.3439C15.6738 26.9244 15.3809 27.4138 14.7949 27.8122Z" fill="black"/>
</svg>
