<svg width="36" height="50" viewBox="0 0 36 50" fill="none" xmlns="http://www.w3.org/2000/svg">
<path d="M35.46 9.82629L32.2295 45.9785L17.7083 50L3.22714 45.984L0 9.82629H35.46Z" fill="#E44D26"/>
<path d="M17.73 46.9259L29.4638 43.6762L32.2244 12.7825H17.73V46.9259Z" fill="#F16529"/>
<path d="M11.4504 21.6519H17.7303V17.2173H6.59888L6.70507 18.407L7.79621 30.6276H17.7303V26.193H11.8561L11.4504 21.6519V21.6519Z" fill="#EBEBEB"/>
<path d="M12.4504 32.8451H7.99414L8.61602 39.8081L17.7095 42.3297L17.7299 42.3241V37.7103L17.7104 37.7154L12.7665 36.3819L12.4504 32.8451V32.8451Z" fill="#EBEBEB"/>
<path d="M3.29907 0H5.55502V2.22653H7.61874V0H9.87483V6.7425H7.61888V4.48473H5.55516V6.7425H3.29921V0H3.29907Z" fill="black"/>
<path d="M12.8412 2.23598H10.8555V0H17.0846V2.23598H15.0976V6.7425H12.8416V2.23598H12.8415H12.8412Z" fill="black"/>
<path d="M18.0735 0H20.4258L21.8727 2.36914L23.3183 0H25.6716V6.7425H23.4248V3.40055L21.8727 5.79788H21.8338L20.2808 3.40055V6.7425H18.0735V0Z" fill="black"/>
<path d="M26.7943 0H29.051V4.51389H32.2235V6.7425H26.7942V0H26.7943Z" fill="black"/>
<path d="M17.7147 30.6277H23.1811L22.6657 36.3791L17.7146 37.714V42.3276L26.8153 39.8081L26.882 39.0588L27.9253 27.3839L28.0336 26.1931H17.7147V30.6277Z" fill="white"/>
<path d="M17.7148 21.6411V21.6519H28.4376L28.5266 20.6552L28.729 18.407L28.835 17.2173H17.7148V21.6412V21.6411Z" fill="white"/>
</svg>
