<svg width="50" height="50" viewBox="0 0 50 50" fill="none" xmlns="http://www.w3.org/2000/svg">
<path d="M24.9933 12.1724C17.8949 12.1724 12.1661 17.9011 12.1661 24.9995C12.1661 32.0979 17.8949 37.8267 24.9933 37.8267C32.0917 37.8267 37.8205 32.0979 37.8205 24.9995C37.8205 17.9011 32.0917 12.1724 24.9933 12.1724ZM24.9933 33.3363C20.4028 33.3363 16.6566 29.59 16.6566 24.9995C16.6566 20.409 20.4028 16.6628 24.9933 16.6628C29.5838 16.6628 33.33 20.409 33.33 24.9995C33.33 29.59 29.5838 33.3363 24.9933 33.3363ZM38.3458 8.65755C36.6885 8.65755 35.3501 9.99593 35.3501 11.6533C35.3501 13.3106 36.6885 14.649 38.3458 14.649C40.0031 14.649 41.3415 13.3169 41.3415 11.6533C41.342 11.2597 41.2649 10.8699 41.1145 10.5063C40.9641 10.1426 40.7435 9.81215 40.4652 9.53387C40.1869 9.25559 39.8565 9.03495 39.4928 8.88458C39.1291 8.7342 38.7393 8.65705 38.3458 8.65755ZM49.9972 24.9995C49.9972 21.5473 50.0285 18.1263 49.8346 14.6803C49.6407 10.6776 48.7276 7.12529 45.8007 4.19837C42.8675 1.26519 39.3214 0.358344 35.3188 0.164467C31.8665 -0.0294104 28.4455 0.00186025 24.9995 0.00186025C21.5473 0.00186025 18.1263 -0.0294104 14.6803 0.164467C10.6776 0.358344 7.12529 1.27144 4.19837 4.19837C1.26519 7.13154 0.358344 10.6776 0.164467 14.6803C-0.0294104 18.1325 0.00186025 21.5535 0.00186025 24.9995C0.00186025 28.4455 -0.0294104 31.8728 0.164467 35.3188C0.358344 39.3214 1.27144 42.8738 4.19837 45.8007C7.13154 48.7339 10.6776 49.6407 14.6803 49.8346C18.1325 50.0285 21.5535 49.9972 24.9995 49.9972C28.4518 49.9972 31.8728 50.0285 35.3188 49.8346C39.3214 49.6407 42.8738 48.7276 45.8007 45.8007C48.7339 42.8675 49.6407 39.3214 49.8346 35.3188C50.0347 31.8728 49.9972 28.4518 49.9972 24.9995ZM44.4936 39.7467C44.037 40.885 43.4867 41.7355 42.6049 42.6111C41.723 43.4929 40.8787 44.0433 39.7405 44.4998C36.4508 45.807 28.6394 45.513 24.9933 45.513C21.3471 45.513 13.5295 45.807 10.2398 44.5061C9.10159 44.0495 8.25103 43.4992 7.37545 42.6174C6.49363 41.7355 5.94326 40.8912 5.48671 39.753C4.18586 36.4571 4.4798 28.6457 4.4798 24.9995C4.4798 21.3534 4.18586 13.5358 5.48671 10.2461C5.94326 9.10784 6.49363 8.25728 7.37545 7.38171C8.25728 6.50613 9.10159 5.94952 10.2398 5.49297C13.5295 4.19211 21.3471 4.48606 24.9933 4.48606C28.6394 4.48606 36.4571 4.19211 39.7467 5.49297C40.885 5.94952 41.7355 6.49988 42.6111 7.38171C43.4929 8.26354 44.0433 9.10784 44.4998 10.2461C45.8007 13.5358 45.5068 21.3534 45.5068 24.9995C45.5068 28.6457 45.8007 36.4571 44.4936 39.7467Z" fill="white"/>
</svg>
