<svg width="51" height="51" viewBox="0 0 51 51" fill="none" xmlns="http://www.w3.org/2000/svg">
<path d="M50.6467 15.2444C50.5296 12.5872 50.0999 10.7604 49.4843 9.1774C48.8493 7.49714 47.8724 5.9928 46.5924 4.74224C45.3419 3.47221 43.8276 2.48535 42.1668 1.86025C40.5747 1.2447 38.7574 0.815002 36.1002 0.697845C33.4232 0.570766 32.5733 0.541382 25.7835 0.541382C18.9938 0.541382 18.1439 0.570766 15.4768 0.687923C12.8196 0.80508 10.9928 1.23516 9.41021 1.85033C7.72956 2.48535 6.22522 3.46229 4.97466 4.74224C3.70463 5.9928 2.71815 7.50706 2.09268 9.16786C1.47713 10.7604 1.04742 12.5772 0.930267 15.2344C0.803188 17.9115 0.773804 18.7614 0.773804 25.5511C0.773804 32.3409 0.803188 33.1907 0.920345 35.8579C1.0375 38.5151 1.46759 40.3419 2.08314 41.9248C2.71815 43.6051 3.70463 45.1094 4.97466 46.36C6.22522 47.63 7.73948 48.6169 9.40028 49.242C10.9928 49.8575 12.8097 50.2872 15.4672 50.4044C18.134 50.5219 18.9842 50.5509 25.774 50.5509C32.5637 50.5509 33.4136 50.5219 36.0807 50.4044C38.7379 50.2872 40.5648 49.8575 42.1473 49.242C45.5082 47.9426 48.1654 45.2854 49.4649 41.9248C50.08 40.3323 50.5101 38.5151 50.6273 35.8579C50.7444 33.1907 50.7738 32.3409 50.7738 25.5511C50.7738 18.7614 50.7639 17.9115 50.6467 15.2444ZM46.1432 35.6625C46.0356 38.1048 45.6254 39.4237 45.2835 40.3029C44.4431 42.4816 42.714 44.2107 40.5354 45.051C39.6561 45.393 38.3277 45.8032 35.8949 45.9104C33.2571 46.028 32.4661 46.057 25.7935 46.057C19.1209 46.057 18.3198 46.028 15.6916 45.9104C13.2493 45.8032 11.9304 45.393 11.0512 45.051C9.96699 44.6503 8.98012 44.0153 8.17911 43.1849C7.3487 42.374 6.71369 41.397 6.31299 40.3129C5.97106 39.4336 5.56082 38.1048 5.45359 35.6724C5.33605 33.0346 5.30705 32.2432 5.30705 25.5706C5.30705 18.898 5.33605 18.097 5.45359 15.4691C5.56082 13.0268 5.97106 11.7079 6.31299 10.8287C6.71369 9.74411 7.3487 8.75762 8.18903 7.95622C8.99958 7.12582 9.97653 6.49081 11.0611 6.09049C11.9403 5.74856 13.2691 5.33832 15.7016 5.23071C18.3393 5.11355 19.1308 5.08417 25.803 5.08417C32.4855 5.08417 33.2766 5.11355 35.9048 5.23071C38.3472 5.33832 39.666 5.74856 40.5453 6.09049C41.6295 6.49081 42.6163 7.12582 43.4173 7.95622C44.2478 8.76716 44.8828 9.74411 45.2835 10.8287C45.6254 11.7079 46.0356 13.0363 46.1432 15.4691C46.2604 18.1069 46.2898 18.898 46.2898 25.5706C46.2898 32.2432 46.2604 33.0247 46.1432 35.6625Z" fill="black"/>
<path d="M25.7836 12.7043C18.6912 12.7043 12.9368 18.4584 12.9368 25.5511C12.9368 32.6439 18.6912 38.3979 25.7836 38.3979C32.8763 38.3979 38.6304 32.6439 38.6304 25.5511C38.6304 18.4584 32.8763 12.7043 25.7836 12.7043ZM25.7836 33.8845C21.1824 33.8845 17.4502 30.1527 17.4502 25.5511C17.4502 20.9496 21.1824 17.2177 25.7836 17.2177C30.3851 17.2177 34.117 20.9496 34.117 25.5511C34.117 30.1527 30.3851 33.8845 25.7836 33.8845V33.8845Z" fill="black"/>
<path d="M42.1378 12.1964C42.1378 13.8526 40.7949 15.1955 39.1383 15.1955C37.4821 15.1955 36.1392 13.8526 36.1392 12.1964C36.1392 10.5398 37.4821 9.19725 39.1383 9.19725C40.7949 9.19725 42.1378 10.5398 42.1378 12.1964V12.1964Z" fill="black"/>
</svg>
