<svg width="50" height="50" viewBox="0 0 50 50" fill="none" xmlns="http://www.w3.org/2000/svg">
<path d="M0 0H50V50H0V0Z" fill="#F7DF1E"/>
<path d="M13.1472 40.5967L16.7321 38.4271C17.4239 39.6534 18.053 40.691 19.5622 40.691C21.0088 40.691 21.9211 40.1251 21.9211 37.924V22.955H26.3235V37.9862C26.3235 42.546 23.6506 44.6216 19.7509 44.6216C16.2291 44.6216 14.1848 42.7977 13.147 40.5963" fill="black"/>
<path d="M29.7617 41.28L33.5875 39.0649C34.5947 40.7097 35.9037 41.9179 38.2193 41.9179C40.1664 41.9179 41.4078 40.9444 41.4078 39.6019C41.4078 37.9909 40.1324 37.4202 37.9843 36.4808L36.8099 35.9769C33.4199 34.5341 31.1712 32.7216 31.1712 28.8954C31.1712 25.3712 33.8562 22.686 38.0517 22.686C41.0388 22.686 43.1869 23.7267 44.7306 26.4452L41.072 28.7948C40.2664 27.3517 39.3941 26.7812 38.0515 26.7812C36.6753 26.7812 35.8027 27.6538 35.8027 28.7948C35.8027 30.2044 36.6753 30.7753 38.689 31.648L39.8636 32.1513C43.8578 33.8632 46.1064 35.6083 46.1064 39.5349C46.1064 43.7642 42.7837 46.0798 38.3199 46.0798C33.9568 46.0798 31.1375 43.9989 29.7615 41.2802" fill="black"/>
</svg>
