<svg width="51" height="51" viewBox="0 0 51 51" fill="none" xmlns="http://www.w3.org/2000/svg">
<path d="M16.3776 41.8595H9.54166V19.7892H16.3776V41.8595ZM17.0597 12.7576C17.0597 10.5477 15.2668 8.75403 13.058 8.75403C10.8409 8.75403 9.05261 10.5477 9.05261 12.7576C9.05261 14.9682 10.8409 16.7618 13.058 16.7618C15.2668 16.7618 17.0597 14.9682 17.0597 12.7576ZM41.9628 29.7173C41.9628 23.7927 40.7112 19.3986 33.7902 19.3986C30.4645 19.3986 28.2321 21.0618 27.3208 22.7914H27.3143V19.7892H20.6737V41.8595H27.3143V30.9014C27.3143 28.0316 28.0448 25.2514 31.6021 25.2514C35.1108 25.2514 35.2245 28.5332 35.2245 31.0837V41.8595H41.9628V29.7173ZM50.7518 44.6915V6.41028C50.7518 3.17923 48.1235 0.550903 44.8925 0.550903H6.61121C3.38016 0.550903 0.751831 3.17923 0.751831 6.41028V44.6915C0.751831 47.9226 3.38016 50.5509 6.61121 50.5509H44.8925C48.1235 50.5509 50.7518 47.9226 50.7518 44.6915V44.6915ZM44.8925 4.45715C45.9693 4.45715 46.8456 5.33339 46.8456 6.41028V44.6915C46.8456 45.7684 45.9693 46.6447 44.8925 46.6447H6.61121C5.53432 46.6447 4.65808 45.7684 4.65808 44.6915V6.41028C4.65808 5.33339 5.53432 4.45715 6.61121 4.45715H44.8925Z" fill="black"/>
</svg>
