<svg width="34" height="30" viewBox="0 0 34 30" fill="none" xmlns="http://www.w3.org/2000/svg">
<path d="M10.3496 29.9838H10.1997C7.17976 29.9573 4.20352 29.2597 1.48645 27.9413C0.986652 27.7065 0.575135 27.3179 0.312137 26.8324C0.049139 26.3469 -0.0515273 25.7899 0.0248746 25.243C0.107968 24.6924 0.362887 24.1822 0.753237 23.7851C1.14359 23.388 1.64941 23.1244 2.1985 23.0319C3.88232 22.8073 5.50219 22.2397 6.95798 21.3642C4.43051 19.3882 2.48472 16.7651 1.32683 13.7731C0.168945 10.781 -0.157913 7.53147 0.380899 4.36876C0.453955 3.86781 0.669399 3.39838 1.00159 3.01636C1.33379 2.63433 1.76875 2.35579 2.25471 2.21388C2.7275 2.0654 3.23349 2.05905 3.70985 2.19563C4.18622 2.33221 4.61197 2.6057 4.93426 2.98214C6.02857 4.41708 7.40374 5.61403 8.97589 6.49997C10.548 7.38591 12.2842 7.94228 14.0785 8.13512C14.1642 5.9275 15.1129 3.84169 16.7205 2.32631C17.5233 1.55762 18.471 0.956387 19.5084 0.557635C20.5458 0.158882 21.6523 -0.0294126 22.7632 0.00372364C23.8741 0.0368599 24.9674 0.290764 25.9792 0.750641C26.991 1.21052 27.9012 1.86717 28.6567 2.68233C28.8535 2.85635 29.0981 2.96725 29.3587 3.00066C29.6193 3.03407 29.8839 2.98845 30.1183 2.86972C30.5651 2.659 31.0625 2.57968 31.5527 2.64101C32.0429 2.70233 32.5055 2.90178 32.8865 3.21608C33.2676 3.53038 33.5515 3.94657 33.705 4.41609C33.8585 4.88561 33.8753 5.3891 33.7535 5.86781C33.3213 7.64815 32.5024 9.31149 31.355 10.7397C31.1021 16.0702 28.752 21.0846 24.8172 24.6895C20.8823 28.2944 15.6818 30.1975 10.3496 29.9838ZM10.3496 26.2361H10.4995C12.6781 26.3111 14.8499 25.9528 16.889 25.1821C18.9282 24.4113 20.794 23.2435 22.3784 21.7463C23.9628 20.249 25.2342 18.4522 26.1189 16.4599C27.0037 14.4676 27.4841 12.3195 27.5324 10.1401C27.5634 9.54283 27.8097 8.97699 28.2257 8.54736C28.6828 7.96882 29.0725 7.34017 29.3875 6.67355C28.7125 6.67484 28.0447 6.53363 27.428 6.25917C26.8113 5.98471 26.2594 5.58317 25.8085 5.08081C25.3749 4.65087 24.8599 4.31176 24.2936 4.08331C23.7273 3.85487 23.1212 3.74169 22.5106 3.75041C21.8939 3.73446 21.2802 3.84047 20.7046 4.06235C20.129 4.28422 19.6029 4.6176 19.1565 5.04334C18.5542 5.61485 18.1126 6.33452 17.8758 7.13032C17.6391 7.92613 17.6154 8.77016 17.8073 9.57796L18.2945 11.7141L16.1022 11.864C13.8557 12.0472 11.5962 11.7399 9.48015 10.9634C7.36415 10.1869 5.44222 8.9597 3.84745 7.36686C3.77905 9.83354 4.3961 12.2709 5.63 14.4078C6.86389 16.5448 8.66627 18.2977 10.8368 19.4717L12.6169 20.4835L11.4364 22.17C10.1597 23.8443 8.41053 25.0974 6.41457 25.7677C7.69497 26.0886 9.01087 26.246 10.3308 26.2361H10.3496Z" fill="black"/>
</svg>
